# xmcd CD database file
#
# Track frame offsets:
#	150
#	15757
#	32520
#	51779
#	70845
#	89599
#	109562
#	125966
#	144066
#	159374
#	176999
#	192642
#	211396
#	229843
#	250254
#
# Disc length: 3613 seconds
#
# Revision: 0
# Processed by: cddbd v1.5.2PL0 Copyright (c) Steve Scherf et al.
# Submitted via: CDex 1.70beta2
#
DISCID=cc0e1b0f
DTITLE=Various Artist - Salsa mania 2 - CD 1
DYEAR=1900
DGENRE=Salsa
TTITLE0=Ray Cruz - Que te pasa
TTITLE1=Danny Rivera - ¿Qué tienne el?
TTITLE2=Grupo Niche - Yo no tomo con hombre
TTITLE3=Edwin Rivera - Tan enamorados
TTITLE4=Maelo Ruiz - Sera que sí
TTITLE5=Victor Manuelle and La Puertorriqueña
TTITLE6=Hermanos Moreno - De que me sirve quererte
TTITLE7=Orquestra Guayacán - No llores por él
TTITLE8=Willie Rosario and Tony Vega - Juntos de nuevo
TTITLE9=Luisito Carrión - La Negra no quiere
TTITLE10=Frankie Morales - Quien
TTITLE11=Ray de la Paz - Estar enamorado
TTITLE12=Nino Sefarra - A Frankie Ruiz
TTITLE13=Jerry Galante - P'al bailador
TTITLE14=Jimmy "El León" - El baile del suavecito
EXTD=
EXTT0=
EXTT1=
EXTT2=
EXTT3=
EXTT4=
EXTT5=
EXTT6=
EXTT7=
EXTT8=
EXTT9=
EXTT10=
EXTT11=
EXTT12=
EXTT13=
EXTT14=
PLAYORDER=
